<svg width="432" height="161" viewBox="0 0 432 161" fill="none" xmlns="http://www.w3.org/2000/svg">
<path d="M30.3672 26.0234L22.9453 8.82422L15.5859 26.0234H30.3672ZM32.7852 31.7539H13.1094L9.23438 40.8633H1.70312L19.4062 1.51953H26.6016L44.3633 40.8633H36.7188L32.7852 31.7539Z" fill="black"/>
<path d="M83.9375 1.51953L66.8516 33.2734C63.8164 39.0078 59.4883 41.707 54.7109 41.707C52.8555 41.707 50.8867 41.3125 48.9219 40.4688L50.7188 34.7344C52.125 35.1836 53.3633 35.4648 54.543 35.4648C56.8437 35.4648 58.7578 34.4023 60.3867 31.8125L61.0039 30.8594L45.3242 1.51953H53.1367L64.7734 24.6211L76.7422 1.51953H83.9375Z" fill="black"/>
<path d="M119.582 7.70312H106.539V40.8633H99.2891V7.70312H86.3047V1.51953H119.582V7.70312Z" fill="black"/>
<path d="M159.098 21.1914C159.098 13.1523 153.195 7.36328 145.273 7.36328C137.344 7.36328 131.445 13.1523 131.445 21.1914C131.445 29.2266 137.344 35.0156 145.273 35.0156C153.195 35.0156 159.098 29.2266 159.098 21.1914ZM124.082 21.1914C124.082 9.55469 133.074 0.957031 145.273 0.957031C157.469 0.957031 166.461 9.5 166.461 21.1914C166.461 32.8828 157.469 41.4258 145.273 41.4258C133.074 41.4258 124.082 32.8242 124.082 21.1914Z" fill="black"/>
<path d="M244.145 1.51953V40.8633H193.613V1.51953H200.805V34.6836H215.309V1.51953H222.504V34.6836H236.949V1.51953H244.145Z" fill="black"/>
<path d="M271.469 24.2812H264.16V40.8633H256.969V1.51953H264.16V17.9883H271.695L282.992 1.51953H290.746L277.316 20.5742L291.25 40.8633H282.992L271.469 24.2812Z" fill="black"/>
<path d="M329.926 21.1914C329.926 13.1523 324.027 7.36328 316.102 7.36328C308.176 7.36328 302.273 13.1523 302.273 21.1914C302.273 29.2266 308.176 35.0156 316.102 35.0156C324.027 35.0156 329.926 29.2266 329.926 21.1914ZM294.91 21.1914C294.91 9.55469 303.902 0.957031 316.102 0.957031C328.301 0.957031 337.293 9.5 337.293 21.1914C337.293 32.8828 328.301 41.4258 316.102 41.4258C303.902 41.4258 294.91 32.8242 294.91 21.1914Z" fill="black"/>
<path d="M379.621 1.51953V40.8633H372.426V7.70312H356.914L356.574 17.5391C356.07 33.0508 353.766 41.4258 345.277 41.4258C344.043 41.4258 342.805 41.1992 341.289 40.8633L341.793 34.5117C342.352 34.6836 342.859 34.7344 343.48 34.7344C348.258 34.7344 349.719 28.8906 350.109 17.8203L350.676 1.51953H379.621Z" fill="black"/>
<path d="M416.105 26.0234L408.684 8.82422L401.32 26.0234H416.105ZM418.52 31.7539H398.848L394.969 40.8633H387.438L405.145 1.51953H412.34L430.098 40.8633H422.457L418.52 31.7539Z" fill="black"/>
<path d="M54.4336 108.363H34.4414V159.062H20.1602V108.363H0.253906V96.5859H54.4336V108.363Z" fill="black"/>
<path d="M232.633 96.5859V159.062H218.352V108.363H196.93L196.484 121.398C195.684 145.941 192.203 160.043 177.562 160.043C175.418 160.043 173.098 159.688 170.422 159.062L171.316 146.832C172.207 147.102 173.012 147.191 173.902 147.191C181.223 147.191 183.094 137.906 183.723 121.934L184.613 96.5859H232.633Z" fill="black"/>
<path d="M270.59 96.5859H284.961V137.285L314.773 96.5859H328.34V159.062H314.062V118.453L284.25 159.062H270.59V96.5859Z" fill="black"/>
<path d="M431.547 143.441V159.062H417.266V145.32C417.266 137.195 412.715 133.266 405.66 133.266C402.18 133.266 398.34 134.164 393.969 136.125V159.062H379.688V108.363H359.785V96.5859H415.93V108.363H393.969V123.539C399.414 121.844 404.41 121.039 409.055 121.039C422.707 121.039 431.547 128.18 431.547 143.441Z" fill="black"/>
<path d="M112.473 99.5664H109.391L109.648 96.6172H112.238L112.473 99.5664ZM113.375 110.926H108.387L109.008 103.906H112.816L113.375 110.926ZM117.184 158.98H104.145L107.211 124.219H114.426L117.184 158.98Z" fill="black"/>
<path d="M83.8828 159.016H70.8359L97.6875 96.5469H100.262L83.8828 159.016Z" fill="black"/>
<path d="M151.18 158.98H138.141L121.766 96.5469H124.344L151.18 158.98Z" fill="black"/>
<path d="M54.8008 69H377" stroke="black" stroke-width="3" stroke-miterlimit="10"/>
</svg>
